<svg xmlns="http://www.w3.org/2000/svg" xmlns:xlink="http://www.w3.org/1999/xlink" width="500" zoomAndPan="magnify" viewBox="0 0 375 374.999991" height="500" preserveAspectRatio="xMidYMid meet" version="1.0"><defs><clipPath id="6c44ab7cdd"><path d="M 128 99.003906 L 246 99.003906 L 246 168 L 128 168 Z M 128 99.003906 " clip-rule="nonzero"/></clipPath><clipPath id="b1c6b2272f"><path d="M 54.1875 156 L 320 156 L 320 335.253906 L 54.1875 335.253906 Z M 54.1875 156 " clip-rule="nonzero"/></clipPath></defs><path fill="#004aad" d="M 168.09375 12.351562 C 118.53125 47.425781 68.96875 82.5 19.40625 117.574219 C 8.6875 125.160156 0 141.949219 0 155.078125 L 0 351.171875 C 0 364.300781 10.640625 374.941406 23.773438 374.941406 L 351.222656 374.941406 C 364.355469 374.941406 375 364.300781 375 351.171875 L 375 155.078125 C 375 141.949219 366.3125 125.160156 355.589844 117.574219 C 306.03125 82.5 256.46875 47.425781 206.90625 12.351562 C 196.1875 4.769531 178.8125 4.769531 168.09375 12.351562 Z M 168.09375 12.351562 " fill-opacity="1" fill-rule="nonzero"/><g clip-path="url(#6c44ab7cdd)"><path fill="#ffffff" d="M 245.601562 118.214844 L 223.9375 124 L 223.9375 167.546875 C 217.792969 153.355469 203.652344 143.390625 187.230469 143.390625 C 170.808594 143.390625 156.667969 153.355469 150.523438 167.546875 L 150.523438 124 L 128.859375 118.214844 L 187.230469 99.003906 L 245.601562 118.214844 " fill-opacity="1" fill-rule="nonzero"/></g><path fill="#ffffff" d="M 245.964844 119.488281 C 265.484375 132.035156 241.082031 169.664062 273.152344 169.664062 C 248.402344 166.546875 266.878906 121.808594 245.964844 119.488281 " fill-opacity="1" fill-rule="nonzero"/><g clip-path="url(#b1c6b2272f)"><path fill="#ffffff" d="M 305.660156 156.050781 C 313.042969 214.417969 219.617188 228.410156 187.230469 270.984375 C 154.84375 228.410156 61.417969 214.417969 68.800781 156.050781 C 21.710938 214.171875 103.246094 244.8125 136.722656 268.40625 C 159.570312 284.5 170.375 292.777344 177.777344 310.433594 C 180.085938 315.921875 182.070312 322.3125 183.980469 330.121094 C 184.378906 331.796875 184.785156 333.53125 185.191406 335.335938 C 185.257812 335.328125 185.527344 335.335938 185.90625 335.355469 C 186.289062 335.375 186.785156 335.414062 187.230469 335.464844 C 187.675781 335.414062 188.171875 335.375 188.558594 335.355469 C 188.933594 335.335938 189.203125 335.328125 189.273438 335.335938 C 189.675781 333.53125 190.085938 331.796875 190.480469 330.121094 C 192.394531 322.3125 194.375 315.921875 196.683594 310.433594 C 204.089844 292.777344 214.890625 284.5 237.738281 268.40625 C 271.21875 244.8125 352.75 214.171875 305.660156 156.050781 " fill-opacity="1" fill-rule="nonzero"/></g><path fill="#ffffff" d="M 221.488281 184.449219 C 221.488281 203.371094 206.152344 218.710938 187.230469 218.710938 C 168.308594 218.710938 152.972656 203.371094 152.972656 184.449219 C 152.972656 182.53125 153.132812 180.644531 153.4375 178.804688 C 156.128906 162.5625 170.226562 150.191406 187.230469 150.191406 C 204.234375 150.191406 218.335938 162.5625 221.023438 178.804688 C 221.328125 180.644531 221.488281 182.53125 221.488281 184.449219 " fill-opacity="1" fill-rule="nonzero"/><path fill="#ffffff" d="M 325.296875 215.351562 C 315.554688 267.703125 226.429688 275.441406 206.019531 333.902344 C 210.304688 334.125 214.429688 334.210938 218.429688 334.183594 C 219.699219 334.046875 237.488281 331.269531 289.769531 280.421875 C 289.769531 280.421875 259.078125 319.964844 231.125 333.65625 C 309.820312 327.472656 327.804688 268.613281 325.296875 215.351562 " fill-opacity="1" fill-rule="nonzero"/><path fill="#ffffff" d="M 49.625 215.351562 C 59.367188 267.703125 148.492188 275.441406 168.902344 333.902344 C 164.621094 334.125 160.492188 334.210938 156.492188 334.183594 C 155.222656 334.046875 137.433594 331.269531 85.152344 280.421875 C 85.152344 280.421875 115.84375 319.964844 143.796875 333.65625 C 65.101562 327.472656 47.121094 268.613281 49.625 215.351562 " fill-opacity="1" fill-rule="nonzero"/></svg>